# xmcd
#
# Track frame offsets:
#	150
#	17016
#	26305
#	40526
#	48332
#	60428
#	72571
#	84845
#	93983
#	104006
#	116406
#	127857
#	138958
#	154347
#
# Disc length: 2250 seconds
#
# Revision: 1
# Processed by: cddbd v1.5.2PL0 Copyright (c) Steve Scherf et al.
# Submitted via: audiograbber 1.83.01
#
DISCID=a808c80e
DTITLE=Irene and Birger - Rygestop
DYEAR=2007
DGENRE=Dansktop
TTITLE0=Rygestop (2007)
TTITLE1=Sko're Kai (2007)
TTITLE2=Min guitar (2007)
TTITLE3=Jeg er så alene uden dig (2007)
TTITLE4=En nat med dig (2007)
TTITLE5=Mit navn er held og lykke (2007)
TTITLE6=Kærlighedens puslespil (2007)
TTITLE7=Er det nødvendigt (2007)
TTITLE8=Min kærlighed til dig (2007)
TTITLE9=Måske et smil (2007)
TTITLE10=En hjemlig symfoni (2007)
TTITLE11=Ramt af Amor's pil (2007)
TTITLE12=Fældes i dag (2007)
TTITLE13=Nu eller aldrig (2007)
EXTD=
EXTT0=
EXTT1=
EXTT2=
EXTT3=
EXTT4=
EXTT5=
EXTT6=
EXTT7=
EXTT8=
EXTT9=
EXTT10=
EXTT11=
EXTT12=
EXTT13=
PLAYORDER=
